<?xml version="1.0" encoding="UTF-8"?>
<!DOCTYPE svg PUBLIC "-//W3C//DTD SVG 1.1//EN" "http://www.w3.org/Graphics/SVG/1.1/DTD/svg11.dtd">
<!-- Creator: CorelDRAW X8 -->
<svg xmlns="http://www.w3.org/2000/svg" xml:space="preserve" width="6.25126in" height="6.25243in" version="1.1" style="shape-rendering:geometricPrecision; text-rendering:geometricPrecision; image-rendering:optimizeQuality; fill-rule:evenodd; clip-rule:evenodd"
viewBox="0 0 6251 6252"
 xmlns:xlink="http://www.w3.org/1999/xlink">
 <defs>
  <style type="text/css">
   <![CDATA[
    .fil3 {fill:#FEFEFE;fill-rule:nonzero}
    .fil21 {fill:#F9B4A4;fill-rule:nonzero}
    .fil17 {fill:#F69FA5;fill-rule:nonzero}
    .fil24 {fill:#F6947C;fill-rule:nonzero}
    .fil19 {fill:#F48E92;fill-rule:nonzero}
    .fil0 {fill:#EFEFEF;fill-rule:nonzero}
    .fil13 {fill:#EAEAE9;fill-rule:nonzero}
    .fil23 {fill:#E0E1E0;fill-rule:nonzero}
    .fil9 {fill:#DBEFEC;fill-rule:nonzero}
    .fil1 {fill:#D9DAD9;fill-rule:nonzero}
    .fil15 {fill:#BDE4E1;fill-rule:nonzero}
    .fil27 {fill:#A2595A;fill-rule:nonzero}
    .fil16 {fill:#B0DFDF;fill-rule:nonzero}
    .fil28 {fill:#874345;fill-rule:nonzero}
    .fil6 {fill:#A2D9D4;fill-rule:nonzero}
    .fil14 {fill:#8EA1A7;fill-rule:nonzero}
    .fil12 {fill:#75CBCA;fill-rule:nonzero}
    .fil11 {fill:#57C3BE;fill-rule:nonzero}
    .fil4 {fill:#42616A;fill-rule:nonzero}
    .fil2 {fill:#384E55;fill-rule:nonzero}
    .fil5 {fill:#00B3A9;fill-rule:nonzero}
    .fil8 {fill:#2C3C43;fill-rule:nonzero}
    .fil7 {fill:#00B09F;fill-rule:nonzero}
    .fil10 {fill:#009B92;fill-rule:nonzero}
    .fil25 {fill:#00AD98;fill-rule:nonzero}
    .fil18 {fill:#00AB93;fill-rule:nonzero}
    .fil26 {fill:#00A68F;fill-rule:nonzero}
    .fil20 {fill:#007C6C;fill-rule:nonzero}
    .fil22 {fill:#006456;fill-rule:nonzero}
   ]]>
  </style>
 </defs>
 <g id="Layer_x0020_1">
  <metadata id="CorelCorpID_0Corel-Layer"/>
  <g id="_3182711533344">
   <path class="fil0" d="M5336 3172c610,352 915,813 915,1275l0 2c0,461 -305,923 -915,1275 -1221,705 -3200,705 -4421,0 -610,-352 -915,-814 -915,-1276 0,-462 305,-924 915,-1276 1221,-705 3200,-705 4421,0z"/>
   <path class="fil1" d="M4067 4874c224,129 224,339 0,469 -224,129 -588,129 -813,0 -224,-130 -224,-340 0,-469 225,-130 589,-130 813,0z"/>
   <path class="fil1" d="M5562 4677c225,130 225,340 0,469 -224,130 -588,130 -813,0 -224,-129 -224,-339 0,-469 225,-129 589,-129 813,0z"/>
   <path class="fil1" d="M2419 5371c224,130 224,340 0,469 -225,130 -589,130 -813,0 -225,-129 -225,-339 0,-469 224,-129 588,-129 813,0z"/>
   <path class="fil2" d="M1070 4515c0,0 -15,-351 -162,-546 -147,-196 -327,-224 -417,-169 -65,40 -56,159 57,237 112,77 330,275 364,404l158 74z"/>
   <path class="fil3" d="M974 4464c-5,-1 -9,-5 -9,-10 15,-318 -264,-517 -340,-553 -4,-2 -6,-7 -4,-12 2,-4 7,-6 12,-4 78,37 366,241 350,570 0,5 -4,9 -9,9l0 0z"/>
   <path class="fil4" d="M1000 4404c-20,-3 -40,-7 -53,-22 -18,-18 -16,-47 -24,-71 -13,-40 -52,-67 -93,-75 -41,-9 -83,-2 -124,8 -45,11 -90,1 -135,-10 -35,-9 -71,-17 -108,-14 -29,2 -59,9 -83,26 -24,17 -41,45 -40,74 2,25 16,47 34,63 18,17 41,28 62,39 24,12 48,25 72,37 12,6 24,12 34,22 18,17 30,52 25,76 -5,28 -28,49 -35,77 -9,35 13,73 45,93 31,19 70,23 106,21 37,-3 74,-10 110,-11 25,0 51,3 72,16 26,16 41,45 50,73 7,19 11,38 23,54 12,16 30,27 49,34 36,13 78,14 115,0 30,-12 45,-46 56,-76 12,-30 17,-65 16,-97 -2,-83 -21,-172 -56,-246 -17,-36 -42,-71 -80,-84 -12,-4 -25,-5 -38,-7z"/>
   <path class="fil3" d="M1080 4785c-4,0 -7,-2 -8,-5 -86,-246 -491,-460 -639,-484 -5,-1 -8,-5 -7,-9 1,-5 5,-8 9,-7 151,25 565,243 652,495 2,4 0,8 -5,10l-2 0z"/>
   <path class="fil3" d="M715 4651c-2,0 -4,-1 -6,-3 -3,-4 -2,-9 1,-12 4,-3 92,-69 226,-72l0 0c4,0 8,3 8,8 0,4 -4,8 -8,8 -128,3 -215,68 -216,69 -1,1 -3,2 -5,2z"/>
   <path class="fil4" d="M1084 4975c-16,-9 -29,-33 -29,-53l0 -2894c0,-20 14,-44 31,-54l3405 -1966c17,-10 45,-11 61,-1 16,9 29,33 29,53l0 2894c0,20 -14,45 -31,55l-3405 1965c-18,10 -45,11 -61,1z"/>
   <path class="fil5" d="M1139 4977l-2 1 -3 1 -2 0c-1,1 -3,1 -4,1l-3 1c-2,0 -3,1 -5,1 -13,1 -26,-1 -36,-7 -16,-9 -29,-33 -29,-53l0 -2523 58 34 0 2523c0,14 8,23 18,23 1,0 3,0 4,-1l1 0 3 -1z"/>
   <path class="fil6" d="M1112 4982c-10,0 -20,-2 -28,-7 -16,-9 -29,-33 -29,-53l0 -1963 58 35 0 1962c0,0 0,0 0,0 0,4 1,8 2,11l0 0c0,0 0,0 0,0 3,7 8,12 16,12 1,0 2,0 3,-1 1,0 2,0 3,0l-3 1 -2 0c-1,1 -3,1 -4,1l-3 1c-2,0 -3,1 -5,1 -3,0 -5,0 -8,0z"/>
   <polygon class="fil5" points="1113,2433 1055,2399 1055,2959 1113,2994 "/>
   <polygon class="fil7" points="1113,2994 1113,2994 1055,2959 1055,2959 1055,2399 1113,2433 "/>
   <path class="fil8" d="M1123 2031c-6,10 -10,21 -10,31l0 371 -58 -34 0 -371c0,-1 0,-2 0,-4 0,-2 0,-5 1,-8 2,-6 4,-13 8,-19l59 34z"/>
   <path class="fil2" d="M4581 60l0 167 -2496 1441c-17,10 -31,2 -31,-18l0 -63c0,-20 -14,-28 -32,-18l-760 439c-17,10 -31,34 -31,54l0 63c0,20 -14,45 -31,54l-87 50 0 -167c0,-20 14,-44 32,-54l3405 -1966c17,-10 31,-2 31,18z"/>
   <path class="fil5" d="M4581 2954c0,20 -14,44 -31,54l-3405 1966c-18,10 -32,2 -32,-18l0 -2727 87 -50c17,-9 45,-161 62,-171l748 -432c8,-5 23,21 37,46 15,26 29,51 38,46l2496 -1441 0 204 0 2523z"/>
   <path class="fil9" d="M1125 4978c-4,-2 -8,-6 -10,-11 0,0 0,0 0,0l0 0c-1,-3 -2,-7 -2,-11 0,0 0,0 0,0 0,12 5,19 12,22zm6 -13c-4,0 -4,-7 -4,-9l0 -2531 3440 -1986 0 2515c0,15 -11,35 -24,42l-310 179 57 -196 -244 64c-24,-35 -59,-86 -93,-134l384 -222c16,-9 30,-31 30,-49 0,-13 -7,-20 -16,-20 -4,0 -9,1 -14,4l-417 241c-12,-17 -24,-33 -34,-46l451 -260c16,-10 30,-32 30,-50 0,-13 -7,-20 -16,-20 -4,0 -9,2 -14,5l-485 280c-15,-18 -30,-31 -47,-39l532 -307c16,-10 30,-32 30,-50 0,-12 -7,-20 -16,-20 -4,0 -9,2 -14,5l-612 353c-6,-1 -11,-1 -18,-1l0 0 -34 -4c-1,0 -1,-1 -1,-1l0 -48c22,3 43,6 61,6 11,0 21,-1 28,-4 15,-7 41,-27 52,-95 26,-37 41,-81 43,-130l0 -15 0 0c0,-35 -7,-69 -20,-99l501 -289c16,-10 30,-32 30,-50 0,-13 -7,-20 -16,-20 -4,0 -9,1 -14,4l-529 306c-12,-16 -25,-31 -39,-43l568 -328c16,-10 30,-32 30,-50 0,-13 -7,-20 -16,-20 -4,0 -9,2 -14,5l-621 358c-24,-11 -50,-18 -77,-21l698 -403c16,-10 30,-32 30,-50 0,-12 -7,-20 -16,-20 -4,0 -9,2 -14,5l-896 517c-5,-10 -15,-15 -26,-15 -3,0 -6,0 -9,1l0 0 8 30 -7 3c-4,-2 -9,-3 -13,-3 -11,0 -22,6 -27,17l0 0 8 5 -953 550c-16,10 -30,32 -30,50 0,13 7,20 16,20 4,0 9,-2 14,-5l978 -564c-11,24 -19,50 -23,79l-955 551c-16,10 -30,32 -30,50 0,12 7,19 16,19 4,0 9,-1 14,-4l955 -551c2,20 7,39 14,58l-969 559c-16,9 -30,32 -30,50 0,12 7,19 16,19 4,0 9,-1 14,-4l995 -574c10,14 22,28 36,40l-1031 599c-16,10 -30,32 -30,50 0,13 7,20 16,20 4,0 9,-1 14,-4l989 -576c0,4 0,8 0,12l0 34c-5,2 -9,3 -12,4 6,14 9,29 12,45l0 44 2 1c0,21 -3,43 -6,64l-599 345c18,-55 8,-88 -16,-113 -22,-21 -37,-30 -49,-30 -17,0 -26,21 -30,56 -5,43 -17,71 -17,71 -4,-18 -6,-26 -10,-35 -7,-13 -17,-16 -25,-16 -2,0 -5,0 -7,1 -5,2 2,14 1,37 -1,29 -11,45 -4,76 3,11 1,23 -5,33 -3,7 -8,14 -13,21l-211 122c-8,5 -16,13 -21,22 -2,-1 -3,-3 -5,-4 1,-8 1,-14 1,-17 0,-1 0,-2 0,-2 0,0 -98,-91 -174,-158l0 -735 -959 554 -3 1562 962 -552 0 -568 77 54c6,-4 12,-7 17,-11 54,39 102,73 113,80 4,3 8,5 13,7 6,4 12,6 19,7l-40 23c-16,9 -30,32 -30,50 0,12 7,19 16,19 4,0 9,-1 14,-4l1015 -586 1 2c-44,90 -80,135 -95,208 2,5 6,10 11,15 -15,61 -21,145 -21,236 0,9 0,18 0,27l-2195 1267c-4,2 -6,3 -7,3zm2009 -1521c-4,0 -9,1 -14,4l-704 410c-16,10 -30,32 -30,50 0,13 7,20 16,20 4,0 9,-1 14,-4l704 -411c16,-10 30,-32 30,-50 0,-12 -7,-19 -16,-19zm1211 -1872c-4,0 -9,1 -14,4l-1915 1105c-16,10 -30,32 -30,50 0,13 7,20 16,20 4,0 9,-2 14,-5l1915 -1105c16,-9 30,-32 30,-50 0,-12 -7,-19 -16,-19zm-740 233c-6,0 -13,2 -20,6l-1157 668c-23,13 -42,46 -42,73l0 5c0,19 10,30 23,30 6,0 12,-2 19,-6l1157 -676c24,-13 42,-45 42,-71 0,-18 -9,-29 -22,-29zm-1063 1850c26,-33 55,-73 83,-114l771 -444 18 55 -872 503zm-85 -111c-8,-6 -16,-14 -25,-22l93 -54c-23,27 -47,53 -68,76zm243 -111c5,-7 10,-14 14,-20 18,-25 35,-56 49,-82l619 -357c-7,24 -14,38 -14,38l10 30 -678 391zm1144 -125c-5,-64 -12,-141 -24,-198 11,-22 20,-40 27,-57l47 49 -50 206z"/>
   <path class="fil10" d="M1131 4979c-2,0 -4,-1 -6,-1 2,0 4,1 6,1 1,0 2,0 3,-1 0,0 0,0 0,0 -1,1 -2,1 -3,1zm6 -1l0 0c3,-1 5,-2 8,-4l2188 -1263 0 0 -2188 1263c-3,2 -5,3 -8,4z"/>
   <path class="fil11" d="M1134 4978c0,0 0,0 0,0 1,0 2,0 3,0l0 0c-1,0 -2,0 -3,0z"/>
   <path class="fil12" d="M1131 4979c-2,0 -4,-1 -6,-1 -7,-3 -12,-10 -12,-22l0 -2727 0 204 14 -8 0 2531c0,2 0,9 4,9 1,0 3,-1 7,-3l2195 -1267c0,5 0,10 0,16l-2188 1263c-3,2 -5,3 -8,4 -1,0 -2,0 -3,0 -1,1 -2,1 -3,1zm3096 -1784l6 -20 310 -179c13,-7 24,-27 24,-42l0 -2515 14 -8 0 2523c0,20 -14,44 -31,54l-323 187z"/>
   <path class="fil12" d="M2111 1653l2470 -1426 -2468 1425c-1,1 -1,1 -2,1z"/>
   <polygon class="fil5" points="1113,2433 1113,2994 4581,992 4581,431 "/>
   <path class="fil13" d="M4581 227l0 204 -3468 2002 0 -204 65 -37c17,-10 23,-25 31,-54l22 -76c7,-26 14,-44 31,-54l748 -432c17,-10 31,-11 44,11l27 48c9,17 14,27 32,17l2468 -1425z"/>
   <path class="fil5" d="M4434 165c22,-13 40,-3 40,23 0,25 -18,55 -40,68 -22,12 -39,2 -39,-23 0,-25 17,-56 39,-68z"/>
   <path class="fil5" d="M4292 247c22,-13 40,-3 40,22 0,26 -18,56 -40,69 -21,12 -39,2 -39,-23 0,-25 18,-56 39,-68z"/>
   <path class="fil5" d="M4150 328c22,-12 40,-2 40,23 0,25 -18,56 -40,69 -21,12 -39,2 -39,-23 0,-25 18,-56 39,-69z"/>
   <path class="fil14" d="M1224 2311l-2 0 -27 -20 0 0 -1 -2 0 0 -1 -2 1 -3 0 0 1 -2 0 -1 27 -51c1,-2 2,-3 4,-3 0,0 1,0 1,0 2,2 1,6 0,9l-19 36 49 -28c1,0 1,0 2,0 1,0 2,1 2,4 0,3 -2,7 -4,8l-49 29 19 14c1,1 2,5 0,8 -1,2 -2,3 -3,4z"/>
   <path class="fil14" d="M1331 2249l-3 0c-1,-2 -1,-6 1,-9l18 -36 -49 28c0,1 -1,1 -1,1 -2,0 -3,-2 -3,-4 0,-4 2,-8 4,-9l49 -28 -18 -15c-2,-1 -2,-5 -1,-8 1,-3 3,-4 5,-4 0,0 0,0 1,0l27 21 0 0 0 1 1 0 0 3 0 2 -1 1 0 2 0 0 -27 51c-1,2 -2,3 -3,3z"/>
   <path class="fil14" d="M1425 2198c-4,0 -8,-1 -11,-4 -12,-12 -12,-43 0,-68 9,-19 22,-30 33,-30 0,0 1,0 2,0l6 -17c1,-2 2,-2 3,-2 1,0 1,0 2,2l2 28c1,2 0,5 -2,6l-20 13c0,0 0,0 -1,0 -1,0 -2,-2 -1,-5l5 -12c-8,0 -17,8 -24,22 -9,19 -9,42 0,51 3,2 6,3 9,3 8,0 18,-8 24,-22 2,-3 3,-4 5,-4 0,0 1,0 1,0 2,2 2,6 0,9 -6,13 -14,22 -22,27 -4,2 -8,3 -11,3z"/>
   <path class="fil14" d="M1957 1728c-1,0 -2,0 -2,0 -2,-2 -2,-8 0,-12l18 -38 -18 -17c-2,-2 -2,-8 0,-12 1,-3 4,-5 6,-5 0,0 1,0 2,0l17 18 18 -38c2,-4 4,-6 6,-6 1,0 2,1 2,1 2,2 2,8 0,12l-18 38 18 17c2,2 2,8 0,12 -1,2 -2,4 -4,5 0,0 -1,0 -2,0 0,0 -1,0 -2,0l-18 -18 -17 38c-1,2 -3,4 -4,5 -1,0 -2,0 -2,0z"/>
   <path class="fil3" d="M1525 2125l0 -63c0,-20 14,-44 31,-54l2818 -1626c17,-10 31,-2 31,18l0 63c0,20 -14,45 -31,55l-2818 1625c-17,10 -31,2 -31,-18z"/>
   <path class="fil1" d="M4321 471l12 9c2,1 3,4 3,7l-3 22 14 -17c2,-3 5,-4 7,-4l17 2 0 -3 -3 -23c0,-2 0,-5 2,-7l13 -25 -15 6c-4,1 -7,0 -8,-3l-7 -15 0 0 -8 27c-1,3 -3,5 -5,6l-18 15 -1 3zm10 50l-2 0c-3,-1 -5,-4 -4,-8l3 -27 0 0 -13 -9c-2,-1 -3,-3 -3,-6 0,-4 2,-8 5,-10l18 -14 2 -2 8 -27c1,-5 5,-8 8,-8 3,0 5,1 6,4l0 0 7 15 17 -6c3,-1 5,0 7,2 2,2 2,7 0,11l-13 25 -1 2 3 23c1,4 -1,8 -3,10 -2,2 -4,3 -6,2l-17 -2 -16 22c-2,2 -4,3 -6,3z"/>
   <path class="fil14" d="M4442 374c-4,0 -8,-2 -10,-5 -3,-6 -1,-12 4,-15l89 -51c1,-1 3,-2 5,-2 4,0 7,2 9,6 3,5 2,12 -4,15l-88 51c-2,1 -3,1 -5,1z"/>
   <path class="fil14" d="M4442 425c-4,0 -8,-2 -10,-5 -3,-6 -1,-12 4,-15l89 -51c1,-1 3,-2 5,-2 4,0 7,2 9,6 3,5 2,12 -4,15l-88 51c-2,1 -3,1 -5,1z"/>
   <path class="fil14" d="M4442 476c-4,0 -8,-2 -10,-5 -3,-6 -1,-12 4,-15l89 -51c1,-1 3,-2 5,-2 4,0 7,2 9,6 3,5 2,12 -4,15l-88 50c-2,1 -3,2 -5,2z"/>
   <polygon class="fil1" points="1113,2229 1113,2433 1055,2399 1055,2195 "/>
   <path class="fil4" d="M3550 1202c-3,1 -4,3 -5,5 -2,3 -3,7 -4,11l-53 244c0,1 0,2 0,3 0,2 0,4 1,5 1,1 3,1 4,0l16 -9c3,-2 5,-4 6,-6 2,-3 2,-5 3,-7l9 -43 70 -40 9 32c0,1 1,3 2,4 1,1 4,1 6,-1l16 -9c2,-1 3,-3 4,-5 2,-2 2,-5 2,-7 0,-1 0,-2 0,-2l-54 -183c-1,-3 -2,-5 -3,-7 -1,-1 -3,-1 -5,1l-24 14zm-12 155l24 -110 24 82 -48 28zm166 -185c-4,4 -7,7 -10,11 -3,3 -5,7 -7,10 -2,4 -3,7 -4,9l0 -71c0,-3 -1,-5 -2,-6 -1,-1 -3,-1 -4,0l-17 9c-1,1 -3,3 -4,6 -1,2 -2,5 -2,7l0 221c0,3 1,5 2,6 1,1 3,1 4,0l17 -10c1,0 3,-2 4,-5 1,-2 2,-5 2,-7l0 -8c1,2 2,3 4,4 2,1 4,2 7,3 3,0 6,0 10,-1 3,0 7,-2 12,-5 7,-4 14,-10 20,-18 6,-8 11,-16 15,-26 4,-10 7,-20 10,-31 2,-11 3,-22 4,-32 0,-4 0,-8 0,-12 0,-5 0,-9 0,-12 -1,-10 -2,-19 -4,-28 -3,-8 -6,-14 -10,-19 -4,-5 -9,-8 -15,-9 -6,-1 -13,1 -20,5 -5,3 -9,6 -12,9zm32 80c-1,15 -4,27 -9,36 -5,10 -11,16 -18,21 -7,4 -13,4 -18,0 -5,-3 -8,-11 -8,-23 -1,-3 -1,-7 -1,-12 0,-6 0,-10 1,-14 0,-12 3,-22 8,-32 5,-10 11,-16 18,-21 7,-4 13,-4 18,-1 5,4 8,13 9,27 1,6 1,12 0,19zm82 -142c-6,7 -12,16 -17,25 -4,10 -8,20 -11,30 -3,11 -5,22 -5,32 0,2 0,5 0,8 0,3 0,7 0,10 0,3 0,6 0,9 0,3 0,6 0,7 1,10 2,19 5,27 3,7 7,13 11,16 5,4 11,6 17,6 7,0 14,-2 22,-6 8,-5 15,-11 22,-19 6,-7 12,-16 17,-25 4,-10 8,-19 11,-30 3,-11 4,-21 5,-32 0,-2 0,-5 0,-8 0,-3 0,-6 0,-9 0,-3 0,-7 0,-10 0,-3 0,-5 0,-7 0,-10 -2,-19 -5,-26 -3,-8 -7,-13 -11,-17 -5,-4 -11,-7 -17,-7 -7,0 -14,3 -22,7 -8,5 -15,11 -22,19zm49 49c0,2 0,5 0,8 0,3 0,6 0,8 0,3 0,5 0,7 -1,8 -2,14 -4,19 -1,6 -3,11 -6,15 -2,4 -5,8 -8,10 -3,3 -6,5 -9,7 -3,2 -6,3 -9,4 -3,0 -6,0 -8,-1 -2,-1 -5,-4 -6,-8 -2,-3 -3,-8 -3,-15 -1,-2 -1,-4 -1,-7 0,-2 0,-5 0,-8 0,-3 0,-6 0,-9 0,-2 0,-5 1,-6 0,-8 1,-14 3,-20 1,-5 4,-10 6,-14 2,-4 5,-8 8,-11 3,-2 6,-4 9,-6 3,-2 6,-3 9,-4 3,-1 6,0 8,1 3,1 5,4 6,7 2,4 3,9 4,16 0,2 0,4 0,7zm52 -10c0,10 1,20 2,29 2,9 4,16 8,21 3,5 8,8 14,9 6,1 13,-1 22,-7 7,-4 13,-9 18,-16 5,-7 9,-14 12,-21l0 7c0,3 1,5 2,6 1,1 3,1 4,0l17 -10c2,0 3,-2 4,-5 1,-2 2,-5 2,-7l0 -157c0,-3 -1,-5 -2,-6 -1,-1 -2,-1 -4,0l-17 10c-1,0 -3,2 -4,5 -1,2 -2,5 -2,7l0 86c0,13 -2,25 -6,36 -4,10 -10,18 -17,22 -9,5 -15,4 -19,-2 -3,-5 -5,-15 -5,-29l0 -85c0,-3 -1,-5 -2,-6 -1,-1 -3,-1 -4,0l-17 10c-1,0 -3,2 -4,5 -1,2 -2,5 -2,7l0 91zm174 -160l28 -16c1,-1 3,-3 4,-5 1,-2 2,-5 2,-7l0 -23c0,-2 -1,-4 -2,-5 -1,-1 -3,-1 -4,0l-28 16 0 -55c0,-2 -1,-4 -2,-5 -1,-2 -3,-2 -4,-1l-17 10c-2,1 -3,3 -4,5 -1,2 -2,5 -2,7l0 55 -14 9c-2,1 -4,3 -5,5 -1,2 -1,5 -1,7l0 23c0,2 0,4 1,5 1,1 3,1 5,0l14 -8 0 72c0,22 4,35 11,41 7,6 18,5 32,-3l16 -9c2,-1 3,-3 4,-5 1,-3 2,-5 2,-8l0 -22c0,-2 -1,-4 -2,-5 -1,-1 -2,-2 -4,-1l-13 8c-7,4 -11,4 -14,1 -2,-2 -3,-7 -3,-14l0 -72zm106 -2c0,11 1,20 2,29 2,9 4,16 8,21 3,5 8,8 14,9 6,1 13,-1 22,-6 7,-4 13,-10 18,-17 5,-7 9,-14 13,-21l0 8c0,2 0,4 1,5 1,1 3,1 4,0l17 -9c2,-1 3,-3 4,-5 1,-3 2,-5 2,-8l0 -157c0,-2 -1,-4 -2,-5 -1,-2 -2,-2 -4,-1l-17 10c-1,1 -3,3 -4,5 -1,2 -1,5 -1,7l0 86c0,14 -2,26 -7,36 -4,11 -10,18 -17,22 -9,5 -15,5 -19,-1 -3,-6 -5,-16 -5,-29l0 -86c0,-2 -1,-4 -2,-5 -1,-2 -3,-2 -4,-1l-17 10c-1,1 -3,3 -4,5 -1,2 -2,5 -2,7l0 91zm195 -81c-1,2 -3,5 -4,7 -2,2 -5,4 -7,6 -2,2 -5,3 -7,5 -5,2 -9,4 -11,4 -2,-1 -4,-1 -6,-2 -1,-2 -2,-3 -3,-4 -2,-1 -3,0 -5,1l-17 10c-2,0 -3,2 -5,5 -1,2 -2,5 -1,7 0,5 1,10 3,15 2,4 5,7 10,9 4,2 9,3 15,2 6,0 12,-3 20,-7 8,-4 15,-10 21,-17 6,-6 11,-13 15,-21 4,-7 7,-15 10,-22 2,-8 3,-15 3,-22 0,-13 -3,-23 -8,-29 -6,-6 -15,-7 -28,-4 -6,1 -11,3 -15,3 -4,1 -7,2 -10,2 -2,0 -4,-1 -4,-2 -1,-1 -2,-3 -2,-6 0,-5 2,-9 5,-13 4,-4 8,-8 12,-10 4,-3 8,-4 10,-4 2,0 4,0 5,1 1,1 3,2 4,2 1,1 3,1 5,-1l17 -9c1,-1 3,-3 4,-6 1,-2 2,-5 2,-7 -1,-5 -2,-10 -4,-14 -2,-4 -5,-7 -9,-8 -4,-2 -9,-3 -15,-2 -5,1 -12,3 -19,7 -7,5 -14,10 -19,16 -5,6 -10,13 -14,20 -4,8 -7,16 -9,23 -2,8 -3,15 -3,22 0,7 0,12 1,18 2,5 3,9 6,12 2,3 6,5 10,6 4,1 10,0 16,-1 7,-1 12,-3 16,-4 4,-1 8,-2 11,-2 2,0 4,0 5,2 1,1 1,2 1,5 0,2 0,4 -2,7z"/>
   <path class="fil15" d="M1261 4688l3 -1562 959 -554 0 735c-33,-29 -61,-53 -76,-64 -32,-25 -65,-30 -86,-30 -15,0 -25,3 -25,3l0 0 -146 6 -152 21c0,0 0,0 0,0 -1,0 -2,0 -2,0 -62,0 -118,11 -162,97 -43,84 -77,260 -93,318l0 0c0,0 3,1 8,4 -7,37 -13,77 -19,120 -8,69 -9,203 -14,317 -2,44 -1,100 3,134 13,120 48,171 96,182 15,3 27,4 36,4 42,0 41,-28 18,-75 -20,-43 -17,-96 -17,-96 14,14 25,25 34,31 7,3 12,5 17,5 10,0 17,-6 20,-10 3,-5 -9,-13 -22,-34 -16,-27 -23,-48 -46,-72 -9,-9 -15,-21 -16,-33 -4,-73 14,-219 30,-304 7,-41 17,-82 28,-122 5,1 10,1 15,1 1,0 2,0 3,0l17 -62 1 10 -2 375c38,42 136,62 242,62 113,0 235,-24 296,-69 0,0 -8,-278 -15,-479l29 21 0 568 -962 552z"/>
   <path class="fil16" d="M2415 2587c-13,0 -23,-11 -23,-30l0 -5c0,-27 19,-60 42,-73l1157 -668c7,-4 14,-6 20,-6 13,0 22,11 22,29 0,26 -18,58 -42,71l-1157 676c-7,4 -13,6 -19,6z"/>
   <path class="fil15" d="M2408 2751c-9,0 -16,-7 -16,-20 0,-18 14,-40 30,-50l1915 -1105c5,-3 10,-4 14,-4 9,0 16,7 16,19 0,18 -14,41 -30,50l-1915 1105c-5,3 -10,5 -14,5z"/>
   <path class="fil15" d="M2408 2882c-9,0 -16,-7 -16,-20 0,-18 14,-40 30,-50l953 -550 40 24c-5,8 -10,17 -15,27l-978 564c-5,3 -10,5 -14,5zm1017 -610c0,0 0,0 -1,0 1,-1 1,-1 2,-1 -1,1 -1,1 -1,1zm-8 -21c-3,-3 -5,-5 -8,-7 -1,0 -1,0 -2,-1l7 -3 3 11zm27 -2c1,-3 1,-6 1,-9 0,-3 0,-6 -1,-8 0,-3 -1,-6 -3,-8l896 -517c5,-3 10,-5 14,-5 9,0 16,8 16,20 0,18 -14,40 -30,50l-698 403c-8,-1 -15,-1 -23,-1 0,0 -1,0 -1,0 -67,0 -127,29 -171,75z"/>
   <path class="fil15" d="M2408 3012c-9,0 -16,-7 -16,-19 0,-18 14,-40 30,-50l955 -551c-1,10 -2,21 -2,32 0,0 0,1 0,1 0,2 0,4 0,5 0,9 1,18 2,27l-955 551c-5,3 -10,4 -14,4zm1361 -781c-16,-14 -34,-26 -53,-35l621 -358c5,-3 10,-5 14,-5 9,0 16,7 16,20 0,18 -14,40 -30,50l-568 328z"/>
   <path class="fil15" d="M2408 3143c-9,0 -16,-7 -16,-19 0,-18 14,-41 30,-50l969 -559c6,17 15,34 26,50l-995 574c-5,3 -10,4 -14,4zm1428 -820c-8,-18 -17,-34 -28,-49l529 -306c5,-3 10,-4 14,-4 9,0 16,7 16,20 0,18 -14,40 -30,50l-501 289z"/>
   <path class="fil15" d="M2408 3274c-9,0 -16,-7 -16,-20 0,-18 14,-40 30,-50l1031 -599c8,7 16,13 25,19 -36,6 -62,32 -67,70l-989 576c-5,3 -10,4 -14,4z"/>
   <path class="fil15" d="M2438 3522c-11,-10 -24,-22 -37,-34 5,-9 13,-17 21,-22l211 -122c-23,35 -62,80 -102,124l-93 54zm331 -191c4,-8 8,-16 12,-23 12,-24 21,-46 27,-65l599 -345c-6,29 -13,55 -19,76l-619 357zm1036 -598c-21,-11 -46,-17 -80,-19l612 -353c5,-3 10,-5 14,-5 9,0 16,8 16,20 0,18 -14,40 -30,50l-532 307z"/>
   <path class="fil15" d="M2631 3541c28,-39 54,-77 75,-108l678 -391 18 55 -771 444zm1255 -724c-15,-21 -27,-37 -34,-45 0,0 0,0 0,0l485 -280c5,-3 10,-5 14,-5 9,0 16,7 16,20 0,18 -14,40 -30,50l-451 260z"/>
   <path class="fil15" d="M2408 3797c-9,0 -16,-7 -16,-19 0,-18 14,-41 30,-50l40 -23c4,1 8,1 12,1 19,0 38,-8 52,-24 7,-8 14,-17 22,-27l872 -503 17 55 -1015 586c-5,3 -10,4 -14,4zm1545 -888c-12,-16 -23,-31 -33,-46l417 -241c5,-3 10,-4 14,-4 9,0 16,7 16,20 0,18 -14,40 -30,49l-384 222z"/>
   <path class="fil15" d="M2408 3928c-9,0 -16,-7 -16,-20 0,-18 14,-40 30,-50l704 -410c5,-3 10,-4 14,-4 9,0 16,7 16,19 0,18 -14,40 -30,50l-704 411c-5,3 -10,4 -14,4z"/>
   <path class="fil17" d="M4981 3108c101,-331 200,-548 99,-615 -94,17 -136,63 -156,187 -21,130 -64,311 -90,416 -20,83 -59,188 -93,252 -6,11 -16,20 -28,24 -31,13 -46,29 -72,47 -20,14 -35,16 -34,22 1,8 10,22 32,19 10,-1 25,-6 43,-14 0,0 -18,50 -55,80 -49,41 -41,83 38,87 28,2 94,-24 155,-127 17,-30 38,-79 54,-120 43,-106 86,-192 107,-258z"/>
   <path class="fil5" d="M5098 2489c0,0 -78,-4 -125,48 -48,52 -103,365 -103,365 0,0 52,71 189,42l39 -455z"/>
   <path class="fil18" d="M4957 2948c-62,-11 -87,-46 -87,-46 0,0 55,-313 103,-365 41,-45 105,-48 121,-48 3,0 4,0 4,0l0 0c-101,18 -125,79 -131,192 -3,64 -6,165 -10,267z"/>
   <polygon class="fil17" points="5360,4895 5465,4895 5465,4707 5360,4707 "/>
   <polygon class="fil17" points="5100,4697 4995,4701 4990,4503 5100,4499 "/>
   <path class="fil2" d="M5480 3084c0,105 -16,946 -16,946 3,31 30,86 24,202 -8,157 -19,569 -19,569 0,0 -51,31 -117,3 0,0 -99,-572 -118,-727 -16,-136 -44,-594 -44,-594l-57 532c0,0 19,81 13,174 -5,72 -39,447 -39,447 0,0 -50,35 -122,10 0,0 -59,-565 -61,-631 -1,-75 35,-932 35,-932l521 1z"/>
   <path class="fil8" d="M5360 4841l0 -16c-10,5 -34,98 -75,137 -34,32 -79,68 -90,103 -12,37 63,57 94,51 36,-6 98,-33 114,-57 15,-25 23,-61 35,-79 13,-18 43,-38 49,-58 4,-12 0,-37 -6,-58 -4,-19 -10,-41 -16,-39 0,3 0,12 0,12 -8,9 -29,18 -53,19 -15,0 -52,-3 -52,-15z"/>
   <path class="fil8" d="M4994 4667c-5,1 -10,9 -22,22 -14,17 -38,34 -62,47 -39,20 -116,52 -150,68 -22,10 -21,37 1,53 23,15 77,27 142,11 35,-8 81,-42 110,-40 29,2 84,1 105,-14 22,-15 13,-48 7,-77 -7,-31 -15,-79 -25,-77l0 11c-12,20 -78,28 -105,13l-1 -17z"/>
   <path class="fil8" d="M5190 3483c0,0 -84,-24 -147,-87 0,0 28,55 112,106l-18 475 53 -494z"/>
   <path class="fil5" d="M5425 2514c0,0 82,7 76,164l-18 250 1 374c-78,88 -420,82 -538,-7 0,0 14,-443 21,-614 6,-121 34,-182 153,-196l147 7 158 22z"/>
   <polygon class="fil18" points="5178,2734 5128,2727 5172,2727 5191,2596 "/>
   <path class="fil8" d="M5301 2160c0,90 -70,163 -157,163 -86,0 -152,-73 -156,-163 -7,-159 70,-163 156,-163 87,0 157,73 157,163z"/>
   <path class="fil8" d="M5390 2241c0,0 -24,118 -33,137 -10,19 -30,25 -30,25l2 -83 61 -79z"/>
   <path class="fil8" d="M5360 2073c0,0 17,-4 36,24 15,25 19,80 -6,144l-45 6 15 -174z"/>
   <path class="fil17" d="M5331 2247c9,5 22,-13 34,-25 11,-12 47,-29 65,11 19,41 -16,95 -44,104 -50,16 -57,-17 -57,-17l-4 186c-66,102 -215,98 -161,-5l0 -56c0,0 -45,7 -67,3 -36,-6 -59,-36 -70,-77 -18,-66 -25,-119 -10,-249 17,-142 176,-143 261,-87 86,56 53,212 53,212z"/>
   <path class="fil8" d="M5326 2464c0,0 -23,51 -65,81 -38,28 -78,33 -78,33 0,0 39,26 55,62 17,36 133,-63 131,-134 0,0 -18,-71 -43,-76l0 34z"/>
   <path class="fil8" d="M5183 2578c0,0 -35,-17 -19,-77l0 -56 -16 2c-12,11 -31,37 -37,65 -4,16 -13,98 3,115 14,14 37,-44 69,-49z"/>
   <path class="fil8" d="M5271 2092c4,-1 8,-1 12,0 13,6 16,48 18,60 8,41 15,110 30,110 5,1 22,-29 34,-40 15,-15 -5,-149 -5,-149 0,0 15,-34 -15,-68 -28,-32 -72,-39 -113,-42 -48,-2 -96,1 -143,-9 -15,-3 -29,-8 -45,-10 -1,0 -3,0 -4,1 -1,1 -1,4 -1,5 3,15 8,28 15,41 -28,-2 -55,-8 -82,-16 -2,-1 -3,-1 -5,-1 -3,1 -3,5 -3,9 2,33 18,84 45,104 21,15 55,25 81,25 74,2 120,-13 181,-20z"/>
   <path class="fil8" d="M5360 2080l55 -31c-8,-16 -27,-23 -42,-14 -15,8 -21,29 -13,45z"/>
   <path class="fil19" d="M5164 2445c0,0 81,-17 110,-33 19,-11 34,-29 39,-41 0,0 -5,25 -22,48 -21,28 -127,48 -127,48l0 -22z"/>
   <path class="fil8" d="M5183 2225c0,10 8,18 17,18 9,0 16,-8 16,-18 0,-9 -7,-17 -16,-17 -9,0 -17,8 -17,17z"/>
   <path class="fil8" d="M5210 2155l34 20c6,-10 2,-23 -8,-29 -9,-5 -21,-1 -26,9z"/>
   <path class="fil19" d="M5171 2343l-37 14c4,11 15,17 25,13 11,-4 16,-16 12,-27z"/>
   <path class="fil8" d="M5034 2170l32 -25c-7,-10 -19,-12 -28,-5 -9,7 -11,21 -4,30z"/>
   <path class="fil8" d="M5048 2221c0,9 7,17 16,17 9,0 16,-8 16,-17 0,-10 -7,-18 -16,-18 -9,0 -16,8 -16,18z"/>
   <polygon class="fil19" points="5135,2207 5133,2310 5075,2297 "/>
   <path class="fil5" d="M5585 2310c23,-31 71,38 93,86 22,48 22,75 4,94 -18,18 -52,7 -86,-38 -34,-45 -24,-119 -11,-142z"/>
   <path class="fil20" d="M5677 2490c-3,0 -8,0 -15,-4 10,-16 20,-33 30,-50 2,7 3,14 3,20 0,14 -4,25 -13,34l0 0c0,0 -2,0 -5,0zm-96 -165c0,-4 1,-7 1,-10 1,-1 2,-3 3,-5 3,-4 7,-6 11,-7 -5,7 -10,15 -15,22z"/>
   <path class="fil17" d="M5750 2320c-83,195 -199,304 -251,429 -68,-5 -122,-170 -71,-240 0,0 200,-216 218,-301 16,-76 38,-200 36,-264 -1,-10 -5,-20 -13,-28 -20,-23 -21,-41 -34,-66 -10,-19 -22,-26 -19,-31 5,-5 18,-13 34,-2 9,5 14,11 26,24 0,0 6,-34 -12,-73 -23,-52 -17,-79 54,-60 44,12 72,49 78,155 2,31 5,94 1,133 -7,82 -12,168 -23,236 -4,30 -12,60 -24,88z"/>
   <path class="fil5" d="M5408 2511l176 -201c0,0 -21,49 25,120 46,72 73,60 73,60 0,0 -104,151 -132,202 -28,51 -56,94 -56,94 0,0 -7,18 -33,18 -26,0 -95,-115 -53,-293z"/>
   <path class="fil18" d="M5461 2804c-20,0 -66,-69 -66,-183 0,-33 4,-70 13,-110l176 -201c0,0 -5,11 -5,30 0,22 6,53 30,90 34,54 58,60 68,60 3,0 5,0 5,0 0,0 -104,151 -132,202 -28,51 -56,94 -56,94 0,0 -7,18 -33,18z"/>
   <polygon class="fil19" points="3979,2964 4062,3074 3973,3177 3858,3042 "/>
   <path class="fil4" d="M3707 2713c73,3 107,14 145,59 37,44 227,319 227,319 0,0 -33,94 -106,86l-134 -138 -132 -326z"/>
   <path class="fil8" d="M3352 5006c-2,18 -7,38 -8,87 -1,53 -11,72 -12,115 -1,50 7,69 27,96 20,28 73,54 96,6 22,-47 19,-78 12,-126 -8,-50 -8,-78 -13,-117 -4,-33 -8,-59 -8,-59l-94 -2z"/>
   <path class="fil21" d="M3502 4590l-174 -3c3,116 21,310 24,419 1,21 0,160 8,202 11,64 87,55 91,17 4,-38 -5,-200 -5,-217 -1,-70 32,-253 49,-378 1,-7 7,-34 7,-40z"/>
   <path class="fil8" d="M3759 4916c0,0 -9,0 -11,8 -2,8 -2,22 -6,36 -5,20 -9,53 -6,69 3,17 40,41 66,45 25,4 61,29 81,48 24,23 76,45 112,44 43,0 72,-14 86,-36 15,-24 -13,-26 -61,-57 -11,-7 -24,-15 -38,-25 -76,-50 -104,-76 -126,-126l-97 -6z"/>
   <path class="fil21" d="M3857 4888c-2,-36 17,-301 17,-301l-150 17c35,212 38,284 34,314 0,1 -1,4 -1,9 0,41 47,63 83,91 14,11 51,44 94,59 28,9 79,13 86,-4 -44,-34 -104,-78 -139,-116 -17,-18 -23,-32 -24,-69z"/>
   <path class="fil5" d="M3369 3388c-82,178 3,807 3,807 -3,29 -36,86 -48,214 -15,150 27,554 27,554 0,0 39,30 97,2 0,0 106,-593 125,-743 16,-130 48,-418 48,-418l90 418c0,0 -23,73 -29,129 -8,88 77,530 77,530 0,0 41,21 98,-2 0,0 38,-571 46,-677 13,-179 -34,-735 -67,-840l-467 26z"/>
   <path class="fil20" d="M3399 4977c-30,0 -48,-14 -48,-14 0,0 -30,-292 -30,-472 0,-32 1,-60 3,-82 12,-128 45,-185 48,-214l0 0c0,0 -35,-253 -39,-484 0,-6 0,-11 0,-16 0,-9 0,-18 0,-27 0,-91 6,-175 21,-236 37,41 135,77 245,77 71,0 147,-15 215,-54l-15 61 61 -18c23,175 45,459 45,625 0,31 -1,57 -2,79 -8,106 -46,677 -46,677 -20,8 -39,11 -53,11 -28,0 -45,-9 -45,-9 0,0 -77,-401 -77,-515 0,-6 0,-11 0,-15 6,-56 29,-129 29,-129l0 0 -90 -418 79 366 -52 -387 30 -128c79,-21 132,-88 132,-88 -50,48 -163,71 -163,71l-26 166c0,0 -32,288 -48,418 -19,150 -125,743 -125,743 -18,9 -35,12 -49,12z"/>
   <path class="fil22" d="M3700 4170l-79 -366 26 -166c0,0 113,-23 163,-71 0,0 -53,67 -132,88l-30 128 52 387z"/>
   <path class="fil5" d="M3411 2833l111 29 0 -235c-62,-16 -111,19 -111,79l0 127z"/>
   <path class="fil22" d="M3413 2834l-2 -1 0 -44c2,15 2,30 2,45zm-2 -94l0 -34c0,-45 27,-76 67,-82 14,9 28,17 44,22l0 75 -12 1c0,0 -64,9 -99,18z"/>
   <path class="fil5" d="M3631 2660l-40 -1c-122,-2 -218,-107 -216,-234 0,-138 107,-250 240,-251 132,-1 240,110 241,248l0 15c-3,126 -104,226 -225,223z"/>
   <path class="fil22" d="M3522 2646c-43,-15 -79,-44 -105,-81 -11,-16 -20,-33 -26,-50 -7,-19 -12,-38 -14,-58 -1,-9 -2,-18 -2,-27 0,-1 0,-3 0,-5l0 0c0,0 0,-1 0,-1 0,-51 15,-98 40,-138l6 3c2,-5 4,-10 4,-15 0,-1 0,-1 0,-2 0,0 0,0 1,-1 9,-4 16,-13 18,-22 44,-46 104,-75 171,-75 0,0 1,0 1,0 132,0 239,111 240,248l0 15c-2,49 -17,93 -43,130 3,-17 4,-37 5,-61 2,-139 -28,-187 -52,-209 5,50 -21,110 -85,144 -51,27 -104,38 -132,42 -4,-6 -12,-11 -20,-11l0 14c0,0 0,0 0,0 -9,-20 -28,-30 -46,-30 -12,0 -24,4 -33,14 -22,23 -12,67 16,93 15,13 28,17 37,17 12,0 18,-7 18,-7l1 73z"/>
   <path class="fil5" d="M3444 2232c-4,-18 -21,-27 -38,-22l11 41c-3,-3 -5,-5 -8,-7 -15,-9 -34,-3 -42,13l54 32c3,-5 4,-11 3,-17 16,-7 25,-24 20,-40z"/>
   <path class="fil22" d="M3421 2289l-54 -32c5,-11 16,-17 27,-17 5,0 10,1 15,4 3,2 5,4 8,7l0 0 -11 -41c3,-1 6,-1 9,-1 14,0 26,9 29,23 1,2 1,5 1,8 0,3 0,6 -1,9 -2,9 -9,18 -18,22 -1,0 -1,0 -2,1l0 0c1,0 1,1 1,2 0,5 -2,10 -4,15z"/>
   <path class="fil2" d="M3510 2722c0,0 -80,12 -111,22 43,105 -25,268 -25,268l64 197c-44,90 -80,135 -95,208 40,79 327,155 513,10 0,0 -6,-200 -30,-317 61,-119 51,-154 39,-195 -29,-97 -88,-134 -158,-202l-42 -5 -155 14z"/>
   <path class="fil8" d="M3445 3287c35,-35 108,-45 108,-45l-67 -39 -75 -182c52,-100 45,-200 45,-200l-43 -10c5,96 -39,201 -39,201l64 197c-44,90 -80,135 -95,208 28,54 170,107 318,88 -198,-13 -249,-183 -216,-218z"/>
   <path class="fil23" d="M3645 3507c2,-1 5,-1 8,-1 -3,0 -5,0 -8,1z"/>
   <path class="fil21" d="M3766 2297c24,22 54,70 52,209 -2,118 -39,147 -57,156 -19,8 -54,3 -89,-2l0 48c0,0 46,51 43,83 -3,33 -65,46 -110,15 -45,-32 -83,-84 -83,-84l-1 -149c0,0 -20,21 -55,-10 -28,-26 -38,-70 -16,-93 22,-24 63,-18 79,16 0,0 79,-7 152,-45 64,-34 90,-94 85,-144z"/>
   <path class="fil8" d="M3672 2479c1,8 -5,16 -13,16 -8,0 -15,-6 -15,-15 -1,-8 5,-15 13,-16 8,0 15,6 15,15z"/>
   <path class="fil24" d="M3678 2578l37 12c-3,11 -14,17 -24,14 -11,-4 -16,-15 -13,-26z"/>
   <path class="fil8" d="M3806 2426l-34 -12c3,-10 12,-15 22,-12 9,3 14,14 12,24z"/>
   <path class="fil5" d="M3529 2472l0 50c13,0 24,-10 24,-24 0,-14 -10,-26 -24,-26z"/>
   <path class="fil22" d="M3530 2522c0,0 -1,0 -1,0l0 -50c14,0 24,12 24,26 0,0 0,0 0,0 0,13 -10,24 -23,24z"/>
   <path class="fil8" d="M3794 2474c1,8 -5,16 -13,16 -8,1 -15,-6 -15,-14 -1,-9 5,-16 13,-17 8,0 15,6 15,15z"/>
   <polygon class="fil24" points="3715,2454 3715,2550 3760,2536 "/>
   <path class="fil24" d="M3672 2660c-36,-5 -111,-27 -123,-58 0,0 4,19 26,39 23,20 97,42 97,42l0 -23z"/>
   <path class="fil21" d="M3228 3216c0,0 89,127 104,144 16,16 26,11 43,3 16,-7 48,-16 62,-20 27,-7 33,18 6,36 -20,13 -42,19 -33,30 10,10 38,29 65,40 66,26 61,39 49,60 -11,18 -41,58 -159,11 -49,-19 -117,-75 -149,-110 -47,-52 -119,-144 -119,-144l131 -50z"/>
   <path class="fil4" d="M3416 2739c-32,2 -93,10 -169,137 -67,110 -170,261 -190,315 -7,21 23,66 62,113 53,-3 102,-39 127,-69 -12,-27 -25,-45 -25,-45l156 -178c0,0 60,-54 72,-125 14,-76 9,-137 -33,-148z"/>
   <polygon class="fil5" points="4290,2979 3905,3080 3799,3516 4165,3410 "/>
   <path class="fil25" d="M3799 3516l106 -436 385 -101 -125 431 -366 106zm317 -229c4,10 26,43 68,43 1,0 3,0 4,0l3 -9 -75 -34zm47 -260c-9,0 -22,2 -36,6l-57 14c-30,8 -55,21 -57,29l-3 15 164 -43c0,0 1,-6 3,-15 1,-4 -4,-6 -14,-6z"/>
   <path class="fil26" d="M4184 3330c-42,0 -64,-33 -68,-43l75 34 -3 9c-1,0 -3,0 -4,0z"/>
   <path class="fil26" d="M4010 3091l3 -15c2,-8 27,-21 57,-29l57 -14c14,-4 27,-6 36,-6 10,0 15,2 14,6 -2,9 -3,15 -3,15l-164 43z"/>
   <path class="fil2" d="M4204 2993c1,-5 -8,-6 -21,-3l-22 6c0,0 6,-32 -43,-20 -50,11 -61,47 -61,47 0,0 -11,3 -24,6 -13,4 -25,11 -27,16l-3 10 199 -53c0,0 0,-4 2,-9z"/>
   <path class="fil2" d="M4176 3009c-18,4 -25,6 -28,19 -3,14 -4,25 -4,25l-88 23c0,0 4,-18 5,-25 2,-7 -1,-12 -15,-8l-1 -5 137 -35 -6 6z"/>
   <path class="fil2" d="M4179 3049c0,0 2,-6 4,-14 1,-8 -21,-9 -51,-1l-57 15c-29,7 -55,20 -56,28l-4 15 164 -43z"/>
   <path class="fil21" d="M4249 3119c0,0 -14,49 -17,61 -4,11 -47,33 -75,40 -28,8 -59,17 -46,57 13,36 59,45 83,44 23,-1 56,-24 69,-61 16,-46 7,-96 14,-123 6,-27 -13,-34 -28,-18z"/>
   <path class="fil27" d="M2792 3130c-53,-53 -72,-32 -79,26 -5,43 -17,71 -17,71 -4,-18 -6,-26 -10,-35 -9,-18 -25,-18 -32,-15 -5,2 2,14 1,37 -1,29 -11,45 -4,76 3,11 1,23 -5,33 -29,53 -119,151 -183,221 -57,-51 -184,-166 -244,-220 -83,-75 -111,-109 -191,-103 0,0 31,9 68,41 38,31 29,212 29,212 0,0 277,198 305,217 4,3 8,5 13,7 27,15 62,8 83,-16 59,-67 145,-200 194,-269 24,-32 46,-77 61,-105 49,-97 44,-144 11,-178z"/>
   <path class="fil5" d="M2036 3216c0,0 56,-15 111,27 48,36 250,222 250,222 0,0 5,98 -97,157l-249 -175 -15 -231z"/>
   <path class="fil18" d="M2300 3622l-77 -54 -29 -21c-2,-52 -3,-100 -5,-136 -6,-121 -34,-182 -153,-195l0 0c0,0 10,-3 25,-3 21,0 54,5 86,30 48,36 250,222 250,222 0,0 0,1 0,2 0,3 0,9 -1,17 -4,29 -19,85 -79,127 -5,4 -11,7 -17,11z"/>
   <polygon class="fil27" points="1692,5625 1797,5625 1797,5438 1692,5438 "/>
   <polygon class="fil27" points="2056,5428 2161,5431 2167,5233 2056,5229 "/>
   <path class="fil2" d="M1677 3814c0,105 15,947 15,947 -2,30 -29,85 -24,201 8,157 19,569 19,569 0,0 51,31 117,3 0,0 100,-572 118,-727 17,-136 45,-593 45,-593l57 531c0,0 -20,81 -13,174 5,72 38,447 38,447 0,0 50,35 122,10 0,0 60,-565 61,-631 1,-75 -35,-932 -35,-932l-520 1z"/>
   <path class="fil8" d="M1797 5571l0 -16c10,5 33,98 75,138 33,31 78,67 90,103 12,36 -63,56 -94,51 -36,-7 -99,-33 -114,-58 -16,-24 -23,-61 -36,-78 -13,-18 -42,-38 -49,-59 -4,-12 1,-37 6,-58 5,-19 10,-40 17,-39 0,3 0,12 0,12 7,9 28,18 52,19 15,1 53,-3 53,-15z"/>
   <path class="fil8" d="M2162 5398c6,0 10,8 22,21 15,17 39,35 62,47 40,20 116,52 151,68 21,10 20,38 -2,53 -22,16 -76,27 -141,12 -36,-9 -82,-43 -111,-41 -29,2 -83,2 -105,-14 -21,-15 -13,-48 -7,-76 7,-31 15,-80 25,-77l0 10c13,20 78,28 106,14l0 -17z"/>
   <path class="fil8" d="M1967 4214c0,0 84,-25 146,-88 0,0 -28,55 -112,107l18 474 -52 -493z"/>
   <path class="fil5" d="M1731 3244c0,0 -82,7 -76,164l18 250 -2 375c78,87 421,81 538,-7 0,0 -12,-444 -20,-615 -6,-121 -34,-182 -153,-195l-146 6 -159 22z"/>
   <polygon class="fil18" points="1978,3465 1965,3326 1984,3458 2028,3457 "/>
   <path class="fil27" d="M1470 3782c43,-343 141,-513 261,-533l-9 219c0,0 -80,183 -113,363 -16,85 -34,231 -30,304 1,12 7,24 16,33 23,24 30,45 46,72 13,21 25,29 22,34 -4,7 -18,16 -37,5 -9,-6 -20,-17 -34,-31 0,0 -3,53 17,96 28,57 24,88 -54,71 -48,-11 -83,-62 -96,-182 -4,-34 -5,-90 -3,-134 5,-114 6,-248 14,-317z"/>
   <path class="fil5" d="M1738 3243c-62,0 -119,11 -164,97 -43,84 -77,260 -93,318 0,0 90,53 174,52l58 -204c0,0 40,-95 25,-263z"/>
   <path class="fil18" d="M1652 3710c-5,0 -10,0 -15,-1 -63,-4 -126,-35 -148,-47 -5,-3 -8,-4 -8,-4 16,-58 50,-234 93,-318 44,-86 100,-97 162,-97 0,0 1,0 2,0 2,27 3,53 3,76 0,120 -28,187 -28,187l-41 142 -17 62c-1,0 -2,0 -3,0z"/>
   <path class="fil8" d="M1866 2890c0,90 70,163 156,163 87,0 157,-73 157,-163 0,-90 -70,-163 -157,-163 -86,0 -156,73 -156,163z"/>
   <path class="fil8" d="M1766 2971c0,0 24,118 34,137 9,19 29,25 29,25l-1 -83 -62 -79z"/>
   <path class="fil8" d="M1796 2803c0,0 -17,-4 -35,24 -16,25 -19,80 5,144l45 6 -15 -174z"/>
   <path class="fil27" d="M1825 2977c-9,5 -22,-13 -33,-25 -11,-12 -48,-29 -66,11 -19,41 16,95 45,104 49,16 57,-17 57,-17l3 186c66,102 215,98 162,-5l0 -56c0,0 44,7 66,3 37,-5 60,-35 71,-76 17,-66 24,-120 9,-249 -16,-143 -175,-144 -261,-88 -86,56 -53,212 -53,212z"/>
   <path class="fil8" d="M1831 3195c0,0 23,50 64,80 38,29 78,34 78,34 0,0 -39,25 -55,61 -16,36 -132,-63 -131,-134 0,0 18,-71 43,-75l1 34z"/>
   <path class="fil8" d="M1973 3309c0,0 36,-18 20,-78l0 -56 15 2c12,11 31,37 38,65 3,16 12,98 -4,115 -14,15 -37,-44 -69,-48z"/>
   <path class="fil8" d="M1825 2993c-5,0 -22,-30 -33,-41 -16,-15 4,-149 4,-149 0,0 -15,-33 15,-68 22,-24 58,-27 119,-37 24,-4 49,-7 72,-13 25,-7 50,-24 73,-36 7,-3 16,-7 24,-5 8,2 14,10 16,18 2,8 1,16 0,24 15,-15 42,-13 57,2 14,16 16,40 9,60 -8,19 -24,35 -42,46 -76,52 -167,38 -253,28 -4,-1 -9,-1 -12,1 -14,6 -17,47 -19,60 -8,40 -15,109 -30,110z"/>
   <path class="fil8" d="M1796 2810l-54 -31c7,-16 26,-22 41,-14 15,9 21,29 13,45z"/>
   <path class="fil28" d="M1993 3175c0,0 -82,-17 -110,-33 -19,-11 -35,-29 -40,-40 0,0 6,25 23,47 21,28 127,48 127,48l0 -22z"/>
   <path class="fil8" d="M1963 2951c0,10 -7,17 -16,17 -9,0 -16,-8 -16,-17 0,-10 7,-18 16,-18 9,0 16,8 16,18z"/>
   <path class="fil8" d="M1935 2880l-35 20c-5,-10 -1,-23 8,-29 10,-5 22,-1 27,9z"/>
   <path class="fil28" d="M1985 3073l37 14c-3,12 -15,17 -25,13 -10,-4 -16,-16 -12,-27z"/>
   <path class="fil8" d="M2126 2900l-37 -18c5,-11 16,-16 26,-11 10,5 15,18 11,29z"/>
   <path class="fil8" d="M2102 2951c0,10 -8,17 -17,17 -9,0 -16,-8 -16,-17 0,-10 7,-18 16,-18 9,0 17,8 17,18z"/>
   <polygon class="fil28" points="2009,2938 2011,3041 2070,3028 "/>
   <path class="fil8" d="M1890 2949c0,-27 21,-49 48,-49l7 0c27,0 48,22 48,49 0,27 -21,49 -48,49l-7 0c-27,0 -48,-22 -48,-49zm48 -41c-22,0 -40,18 -40,41 0,22 18,41 40,41l7 0c22,0 40,-19 40,-41 0,-23 -18,-41 -40,-41l-7 0z"/>
   <path class="fil8" d="M2036 2949c0,-27 22,-49 48,-49l8 0c26,0 48,22 48,49 0,27 -22,49 -48,49l-8 0c-26,0 -48,-22 -48,-49zm48 -41c-22,0 -40,18 -40,41 0,22 18,41 40,41l8 0c22,0 40,-19 40,-41 0,-23 -18,-41 -40,-41l-8 0z"/>
   <path class="fil8" d="M1993 2939c4,-7 14,-12 25,-13 10,0 18,3 22,9l7 -5c-6,-9 -17,-13 -29,-12 -14,1 -26,7 -32,17l7 4z"/>
   <polygon class="fil8" points="1811,2947 1894,2947 1894,2939 1811,2939 "/>
  </g>
 </g>
</svg>
